<svg id="레이어_2" data-name="레이어 2" xmlns="http://www.w3.org/2000/svg" width="16.328" height="20.236" viewBox="0 0 16.328 20.236">
    <defs>
        <style>
            .cls-1{fill:#fff}
        </style>
    </defs>
    <g id="레이어_1" data-name="레이어 1">
        <circle id="타원_442" data-name="타원 442" class="cls-1" cx="1.56" cy="1.56" transform="translate(3.3 14.024)" r="1.56"/>
        <path id="패스_7038" data-name="패스 7038" class="cls-1" d="M.094 4.411A5.518 5.518 0 0 1 4.174 0a11.02 11.02 0 0 0-.947 2.629c-1.013 3.715.432 6.076 3.141 7.736.03.017.474.3.5.324a5.8 5.8 0 0 1 2.612 5.735 5.506 5.506 0 0 1-2.631 3.812A6.36 6.36 0 0 0 8.6 17.074c.823-3.034-1.722-5.056-4.323-6.143A13.472 13.472 0 0 1 2.7 10.2l-.165-.1A5.354 5.354 0 0 1 .094 4.411z"/>
        <path id="패스_7039" data-name="패스 7039" class="cls-1" d="M118.567 34.06a5.534 5.534 0 0 1 .9 3.572c-.424 2.57-2.147 2.605-2.57 3.707a1.471 1.471 0 0 0 .062 1.172 1.472 1.472 0 0 0 1.172.062c1.1-.423 1.138-2.145 3.708-2.57a5.533 5.533 0 0 1 3.571.9 3.31 3.31 0 0 0-2.23 1.44 4.088 4.088 0 0 1-3.026 2.018 4.507 4.507 0 0 1-3.444-1.409l-.019-.018-.015-.016-.062-.064-.064-.062-.016-.015-.019-.019a4.533 4.533 0 0 1-1.409-3.447 4.082 4.082 0 0 1 2.018-3.026 3.287 3.287 0 0 0 1.443-2.225z" transform="translate(-109.085 -32.283)"/>
    </g>
</svg>
