<svg xmlns="http://www.w3.org/2000/svg" width="51.148" height="59.8" viewBox="0 0 51.148 59.8">
    <defs>
        <filter id="타원_440" x="7.305" y="31.047" width="21.908" height="21.908" filterUnits="userSpaceOnUse">
            <feOffset/>
            <feGaussianBlur stdDeviation="2.5" result="blur"/>
            <feFlood flood-opacity=".502"/>
            <feComposite operator="in" in2="blur"/>
            <feComposite in="SourceGraphic"/>
        </filter>
        <filter id="패스_7031" x="0" y="0" width="36.171" height="59.8" filterUnits="userSpaceOnUse">
            <feOffset/>
            <feGaussianBlur stdDeviation="2.5" result="blur-2"/>
            <feFlood flood-opacity=".502"/>
            <feComposite operator="in" in2="blur-2"/>
            <feComposite in="SourceGraphic"/>
        </filter>
        <filter id="패스_7032" x="13.294" y="3.934" width="37.854" height="37.854" filterUnits="userSpaceOnUse">
            <feOffset/>
            <feGaussianBlur stdDeviation="2.5" result="blur-3"/>
            <feFlood flood-opacity=".502"/>
            <feComposite operator="in" in2="blur-3"/>
            <feComposite in="SourceGraphic"/>
        </filter>
        <style>
            .cls-2{fill:#231815}
        </style>
    </defs>
    <g id="레이어_2" data-name="레이어 2" transform="translate(7.5 7.5)">
        <g id="레이어_1" data-name="레이어 1">
            <g style="filter:url(#타원_440)" transform="translate(-7.5 -7.5)">
                <circle id="타원_440-2" data-name="타원 440" cx="3.454" cy="3.454" r="3.454" transform="translate(14.8 38.55)" style="fill:#c59c73"/>
            </g>
            <g style="filter:url(#패스_7031)" transform="translate(-7.5 -7.5)">
                <path id="패스_7031-2" data-name="패스 7031" class="cls-2" d="M.208 9.765A12.215 12.215 0 0 1 9.241 0a24.4 24.4 0 0 0-2.1 5.821C4.9 14.045 8.1 19.273 14.1 22.947c.067.037 1.049.673 1.111.717 4.1 2.895 6.677 7.52 5.784 12.7a12.19 12.19 0 0 1-5.826 8.436 14.081 14.081 0 0 0 3.862-7c1.823-6.717-3.812-11.193-9.571-13.6a29.825 29.825 0 0 1-3.476-1.617l-.365-.223C1.33 19.868-.685 14.939.208 9.765z" transform="translate(7.5 7.5)"/>
            </g>
            <g style="filter:url(#패스_7032)" transform="translate(-7.5 -7.5)">
                <path id="패스_7032-2" data-name="패스 7032" class="cls-2" d="M122.789 34.06s2.668 3.847 2 7.908c-.939 5.689-4.753 5.767-5.689 8.207a3.256 3.256 0 0 0 .136 2.6 3.259 3.259 0 0 0 2.594.136c2.44-.937 2.519-4.75 8.208-5.689 4.061-.67 7.907 2 7.907 2a7.327 7.327 0 0 0-4.937 3.187 9.05 9.05 0 0 1-6.7 4.467c-2.755.325-5.506-1.142-7.624-3.119l-.043-.04-.033-.035c-.046-.046-.091-.095-.137-.142l-.141-.137-.035-.034-.042-.042c-1.972-2.124-3.439-4.876-3.119-7.631a9.037 9.037 0 0 1 4.467-6.7 7.277 7.277 0 0 0 3.188-4.936z" transform="translate(-94.3 -22.63)"/>
            </g>
        </g>
    </g>
</svg>
